<?xml version="1.0" encoding="UTF-8"?>
<svg id="Layer_2" data-name="Layer 2" xmlns="http://www.w3.org/2000/svg" viewBox="0 0 220.76 107.29">
  <defs>
    <style>
      .cls-1 {
        fill: #936c3d;
      }
    </style>
  </defs>
  <g id="Calque_1" data-name="Calque 1">
    <g>
      <path class="cls-1" d="M106.89,46.44c-2.33-1.52-5.04-2.28-8.13-2.28-2.72,0-5.38,.59-7.97,1.77-2.59,1.18-4.73,2.96-6.4,5.34-1.68,2.38-2.51,5.28-2.51,8.68,0,2.98,.64,5.75,1.92,8.29,.33,.65,.7,1.27,1.09,1.86-3.42,2.63-6.83,3.69-10.54,3.69-2.5,0-4.3-.85-5.38-2.57-1.09-1.71-1.63-4.69-1.63-8.95,0-8.09,1.96-17.32,5.88-27.66,5.51-2.25,9.55-4.09,12.14-5.51,6.09-3,11.22-6.55,15.4-10.64,4.17-4.01,6.26-8.01,6.26-12.02s-2.3-5.88-6.88-5.88c-6.34,0-12.73,3.38-19.15,10.14-6.25,6.41-11.15,14.28-14.71,23.61-2.57,.66-5.36,1.33-8.38,2-1.33,.3-2.4,1.29-2.78,2.6,3.68-.78,7.12-1.58,10.32-2.4l-.33,.86c-2.59,7.18-3.88,14.23-3.88,21.15,0,11.6,4.13,17.4,12.39,17.4,4.23,0,8.28-1.55,12.17-4.66,.98,1.18,2.13,2.19,3.45,3.04,2.33,1.49,5.04,2.24,8.13,2.24s5.84-.67,8.4-2c2.56-1.34,4.61-3.22,6.13-5.65,1.52-2.43,2.28-5.27,2.28-8.52,0-2.77-.63-5.41-1.88-7.89-1.26-2.49-3.05-4.49-5.38-6.01ZM86.87,10.94c4.76-5.76,9.35-8.64,13.77-8.64,3,0,4.51,1.42,4.51,4.26,0,3.5-1.96,7.09-5.88,10.77-3.67,3.42-8.56,6.72-14.65,9.89-2.42,1.42-5.84,3-10.26,4.76,3.5-8.59,7.68-15.6,12.52-21.03Zm19.08,61.03c-1.49,2.04-3.6,3.06-6.32,3.06-2.3,0-4.35-.77-6.13-2.32-1.51-1.31-2.74-3.03-3.71-5.17,2.58-2.68,4.8-5.74,7.92-11.29,.39-.55,.68-1.18,.86-1.88,.16-.61,.15-1.14-.03-1.58-.17-.44-.52-.72-1.03-.85-.41-.1-.76-.05-1.04,.16-.29,.21-.47,.5-.56,.86-.08,.33-.11,.62-.07,.86,.03,.24,.1,.49,.19,.76,.01,.06,.05,.22,.12,.5,.06,.24,.05,.52-.01,.83-2.44,4.19-4.73,7.5-6.97,10.08-.93-2.6-1.4-5.45-1.4-8.55,0-3.82,.73-6.73,2.2-8.72,1.47-1.99,3.53-2.98,6.2-2.98,2.25,0,4.29,.71,6.13,2.12,1.83,1.41,3.27,3.4,4.32,5.97,1.05,2.57,1.57,5.5,1.57,8.8,0,4.19-.75,7.3-2.24,9.35Z"/>
      <path class="cls-1" d="M134.74,74.56c-1.99,0-3.29-.35-3.89-1.06-.6-.71-.9-2.16-.9-4.36V19.67l.04-2.82c-3.97,2.74-3.85,2.72-6.29,4.06-2.44,1.34-4.42,2.15-5.93,2.42-1.51,.27-2.79,.04-3.83-.66-.61-.41-1.04-.87-1.3-1.37-.26-.5-.42-.8-.48-.9-.21-.53-.45-.99-.71-1.39-.26-.4-.68-.8-1.24-1.18-.6-.41-1.26-.59-1.97-.53-.7,.06-1.29,.43-1.77,1.12-.59,.86-.73,1.74-.41,2.62,.32,.88,.99,1.68,2.03,2.39,1.9,1.3,3.95,1.95,6.13,1.95,2.11,0,4.62-.65,7.51-1.96,.25-.05,.47-.07,.67-.07,.89,0,1.5,.42,1.85,1.26,.34,.84,.51,2.2,.51,4.08v40.45c0,2.2-.31,3.65-.94,4.36s-1.91,1.06-3.85,1.06c-.16,0-.24,.16-.24,.47s.08,.47,.24,.47c1.26,0,2.25-.03,2.98-.08l4.4-.08,4.32,.08c.79,.05,1.81,.08,3.06,.08,.16,0,.24-.16,.24-.47s-.08-.47-.24-.47Z"/>
      <path class="cls-1" d="M155.94,75.5c.16,0,.24-.16,.24-.47s-.08-.47-.24-.47c-1.36,0-2.38-.14-3.06-.43-.68-.29-1.14-.81-1.37-1.57-.24-.76-.35-1.9-.35-3.42v-14.69c0-2.36,.03-4.4,.08-6.13,.05-1.73,.08-2.77,.08-3.14,0-.16-.09-.31-.27-.47-.18-.16-.35-.24-.51-.24l-.31,.08-10.25,4.78c-.37,.09-.73,.11-1.09,.03-.38-.08-.69-.22-.92-.41-.23-.19-.37-.31-.42-.35-.21-.22-.42-.4-.63-.55-.21-.15-.5-.26-.85-.33-.38-.08-.74-.04-1.08,.13-.34,.17-.55,.47-.65,.91-.12,.55,0,1.01,.32,1.38,.34,.37,.83,.63,1.49,.77,1.2,.26,2.35,.17,3.43-.27,.19-.08,.39-.18,.59-.28h0c1.41-.73,2.56-1.1,3.46-1.1,.94,0,1.6,.42,1.96,1.26,.37,.84,.55,2.17,.55,4.01v14.61c0,2.2-.31,3.65-.94,4.36-.63,.71-1.91,1.06-3.85,1.06-.16,0-.24,.16-.24,.47s.08,.47,.24,.47c1.2,0,2.17-.03,2.91-.08l4.4-.08,4.24,.08c.73,.05,1.75,.08,3.06,.08Z"/>
      <path class="cls-1" d="M148.09,35.52c1.1,0,1.96-.31,2.59-.94,.63-.63,.94-1.52,.94-2.67,0-1.05-.31-1.89-.94-2.51-.63-.63-1.49-.94-2.59-.94s-2.06,.31-2.71,.94c-.66,.63-.98,1.47-.98,2.51,0,1.15,.33,2.04,.98,2.67,.65,.63,1.56,.94,2.71,.94Z"/>
      <path class="cls-1" d="M189.46,45.65c0-.31-.08-.47-.24-.47-1.15,0-2.02,.03-2.59,.08l-2.83,.08-4.71-.08c-.73-.05-1.81-.08-3.22-.08-.11,0-.16,.16-.16,.47s.05,.47,.16,.47c2.04,0,3.52,.27,4.44,.82,.92,.55,1.37,1.45,1.37,2.71,0,.79-.21,1.81-.63,3.06l-6.05,17.36-10.13-20.89c-.26-.63-.39-1.07-.39-1.34,0-.63,.38-1.07,1.14-1.34,.76-.26,1.87-.39,3.34-.39,.1,0,.16-.16,.16-.47s-.05-.47-.16-.47c-1.31,0-2.36,.03-3.14,.08l-5.11,.08-2.75-.08c-.63-.05-1.55-.08-2.75-.08-.1,0-.16,.16-.16,.47s.05,.47,.16,.47c.99,0,1.81,.35,2.43,1.06,.63,.71,1.54,2.21,2.75,4.52l12.1,24.5c-1.73,4.5-6.21,17.72-7.47,20.21-1.26,2.49-2.43,4.27-3.53,5.34-1.1,1.07-2.28,1.61-3.53,1.61-.73,0-1.35-.13-1.85-.39-.5-.26-.8-.42-.9-.47-.47-.31-.93-.56-1.37-.75-.45-.18-1.01-.27-1.69-.27-.73,0-1.37,.22-1.92,.67-.55,.44-.82,1.09-.82,1.92,0,1.05,.38,1.85,1.14,2.4,.76,.55,1.77,.82,3.02,.82,2.3,0,4.36-.62,6.17-1.85,1.81-1.23,3.56-3.27,5.26-6.13,1.7-2.85,6.51-16.55,8.45-21.62l9.43-25.13c.89-2.3,1.82-3.95,2.79-4.95,.97-.99,2.16-1.49,3.57-1.49,.16,0,.24-.16,.24-.47Z"/>
      <path class="cls-1" d="M62.84,4.3c.3-.22,.59-.42,.88-.61,1.15-.63,2.15-1.06,3.02-1.29,1.48-.4,2.77-.29,3.87,.32,.64,.36,1.11,.77,1.42,1.24,.31,.47,.49,.76,.56,.85,.26,.5,.54,.95,.84,1.32,.3,.38,.75,.73,1.34,1.06,.64,.36,1.31,.48,2.01,.36,.7-.12,1.25-.55,1.66-1.28,.51-.91,.57-1.8,.17-2.65-.39-.85-1.14-1.58-2.24-2.2-2.01-1.12-4.11-1.59-6.28-1.4-2.1,.19-4.52,1.05-7.26,2.6-1.92,.98-3.36,1.91-3.36,1.91-4.34,3.09-8.14,7.18-11.39,12.27-1.59,2.25-2.96,4.92-4.13,8.01-1.59,3.92-3.8,9.72-6.63,17.4l-6.51,1.25c-.17,0-.52,.06-1.06,.19-.54,.13-1.38,.29-2.5,.5-1.13,.21-2.27,.4-3.44,.56C7.93,48.24,0,54.58,0,63.76c0,3.84,1.21,6.82,3.63,8.95,2.42,2.13,5.84,3.19,10.26,3.19,6.59,0,12.27-2.63,17.02-7.89,4.76-5.26,9.39-13.73,13.89-25.41l.63-2.13,8.89-24.28c1.08-3.17,2.25-5.51,3.5-7.01,1.5-1.83,3.17-3.46,5.01-4.88ZM30.29,59.25c-1.75,3.76-3.46,6.76-5.13,9.01-1.75,2.25-3.49,3.8-5.19,4.63-1.71,.84-3.99,1.25-6.82,1.25-3.5,0-6.22-.92-8.14-2.75-1.92-1.83-2.88-4.34-2.88-7.51,0-4.76,1.92-8.39,5.76-10.89,3.84-2.5,9.22-4.55,16.15-6.13,1-.25,5.13-1.13,12.39-2.63-2.92,7.59-4.97,12.6-6.13,15.02Z"/>
      <path class="cls-1" d="M220.76,68.46c-.03-.5-.28-.9-.76-1.2-.38-.24-.75-.3-1.11-.18-.36,.12-.64,.35-.85,.68-.19,.31-.32,.59-.36,.84-.04,.25-.06,.53-.06,.83,0,.06-.02,.24-.05,.54-.02,.3-.14,.61-.35,.95-.24,.38-.58,.67-1.02,.88-.83,.26-1.55,.4-2.16,.4-1.05,0-1.82-.42-2.32-1.26-.5-.84-.75-2.15-.75-3.93v-14.53c0-2.62-.59-4.62-1.77-6.01-1.18-1.39-2.84-2.08-4.99-2.08-1.78,0-3.84,.42-6.17,1.26-2.33,.84-4.32,1.91-5.97,3.22-1.65,1.31-2.47,2.62-2.47,3.93,0,.68,.24,1.26,.71,1.73,.47,.47,1.18,.71,2.12,.71,1.83,0,2.91-1.15,3.22-3.46,.26-1.52,.84-2.88,1.73-4.08,.89-1.2,2.2-1.81,3.93-1.81,1.57,0,2.76,.71,3.57,2.12,.81,1.41,1.22,3.69,1.22,6.83v5.18l-8.4,3.06c-2.93,1.1-5.07,2.21-6.4,3.34-1.34,1.13-2,2.53-2,4.2,0,1.57,.55,2.87,1.65,3.89,1.1,1.02,2.64,1.53,4.63,1.53,1.15,0,2.24-.18,3.26-.55,1.02-.37,2.16-.99,3.42-1.89l3.93-2.59c.21,1.57,.59,2.82,1.14,3.73,.55,.92,1.16,1.37,1.85,1.37,.26,0,.5-.05,.71-.16l7.32-3.48c.16-.05,.31-.11,.46-.17,1.07-.46,1.94-1.22,2.6-2.26,.36-.57,.52-1.1,.49-1.6Zm-14.64,.92v.47l-3.06,1.88c-1.31,.79-2.49,1.18-3.53,1.18-1.26,0-2.29-.4-3.1-1.22-.81-.81-1.22-1.85-1.22-3.1,0-1.15,.37-2.11,1.1-2.87,.73-.76,1.81-1.4,3.22-1.92l6.6-2.67v8.25Z"/>
    </g>
  </g>
</svg>