<?xml version="1.0" encoding="UTF-8"?>
<svg id="Layer_2" data-name="Layer 2" xmlns="http://www.w3.org/2000/svg" viewBox="0 0 113.15 49.69">
  <defs>
    <style>
      .cls-1 {
        letter-spacing: 0em;
      }

      .cls-2 {
        letter-spacing: -.06em;
      }

      .cls-3 {
        letter-spacing: -.02em;
      }

      .cls-4, .cls-5 {
        fill: #936c3d;
      }

      .cls-6 {
        letter-spacing: -.01em;
      }

      .cls-5 {
        font-family: Montserrat-Medium, Montserrat;
        font-size: 5.79px;
        font-weight: 500;
      }

      .cls-7 {
        letter-spacing: 0em;
      }
    </style>
  </defs>
  <g id="Calque_1" data-name="Calque 1">
    <g>
      <g>
        <path class="cls-4" d="M45.34,19.7c-.99-.64-2.14-.97-3.45-.97-1.16,0-2.28,.25-3.38,.75-1.1,.5-2,1.26-2.72,2.27-.71,1.01-1.07,2.24-1.07,3.68,0,1.27,.27,2.44,.82,3.51,.14,.28,.29,.54,.46,.79-1.45,1.11-2.9,1.56-4.47,1.56-1.06,0-1.82-.36-2.28-1.09-.46-.73-.69-1.99-.69-3.8,0-3.43,.83-7.34,2.5-11.73,2.34-.96,4.05-1.73,5.15-2.34,2.58-1.27,4.76-2.78,6.53-4.51,1.77-1.7,2.65-3.4,2.65-5.1s-.97-2.5-2.92-2.5c-2.69,0-5.4,1.43-8.12,4.3-2.65,2.72-4.73,6.06-6.24,10.01-1.09,.28-2.27,.56-3.56,.85-.56,.13-1.02,.55-1.18,1.1,1.56-.33,3.02-.67,4.38-1.02l-.14,.36c-1.1,3.04-1.65,6.04-1.65,8.97,0,4.92,1.75,7.38,5.26,7.38,1.79,0,3.51-.66,5.16-1.98,.42,.5,.91,.93,1.46,1.29,.99,.63,2.14,.95,3.45,.95s2.48-.28,3.56-.85c1.09-.57,1.95-1.37,2.6-2.4,.64-1.03,.97-2.24,.97-3.61,0-1.18-.27-2.29-.8-3.35-.53-1.05-1.29-1.9-2.28-2.55Zm-8.49-15.06c2.02-2.44,3.96-3.66,5.84-3.66,1.27,0,1.91,.6,1.91,1.81,0,1.49-.83,3.01-2.5,4.57-1.56,1.45-3.63,2.85-6.21,4.19-1.03,.6-2.48,1.27-4.35,2.02,1.49-3.65,3.26-6.62,5.31-8.92Zm8.09,25.89c-.63,.87-1.53,1.3-2.68,1.3-.98,0-1.84-.33-2.6-.98-.64-.56-1.16-1.29-1.57-2.19,1.1-1.14,2.04-2.44,3.36-4.79,.17-.23,.29-.5,.36-.8,.07-.26,.06-.48-.01-.67-.07-.19-.22-.31-.44-.36-.17-.04-.32-.02-.44,.07-.12,.09-.2,.21-.24,.36-.04,.14-.05,.26-.03,.36,.01,.1,.04,.21,.08,.32,0,.02,.02,.09,.05,.21,.02,.1,.02,.22,0,.35-1.03,1.78-2.01,3.18-2.96,4.28-.4-1.1-.59-2.31-.59-3.63,0-1.62,.31-2.85,.93-3.7,.62-.84,1.5-1.27,2.63-1.27,.95,0,1.82,.3,2.6,.9,.78,.6,1.39,1.44,1.83,2.53,.44,1.09,.67,2.33,.67,3.73,0,1.78-.32,3.1-.95,3.96Z"/>
        <path class="cls-4" d="M57.15,31.62c-.84,0-1.39-.15-1.65-.45-.26-.3-.38-.92-.38-1.85V8.34l.02-1.2c-1.68,1.16-1.63,1.15-2.67,1.72-1.04,.57-1.87,.91-2.52,1.02-.64,.11-1.18,.02-1.62-.28-.26-.18-.44-.37-.55-.58-.11-.21-.18-.34-.2-.38-.09-.22-.19-.42-.3-.59-.11-.17-.29-.34-.53-.5-.26-.18-.53-.25-.83-.23-.3,.02-.55,.18-.75,.48-.25,.37-.31,.74-.17,1.11,.13,.37,.42,.71,.86,1.01,.81,.55,1.67,.83,2.6,.83,.9,0,1.96-.28,3.18-.83,.11-.02,.2-.03,.28-.03,.38,0,.64,.18,.78,.53,.14,.36,.22,.93,.22,1.73V29.33c0,.93-.13,1.55-.4,1.85s-.81,.45-1.63,.45c-.07,0-.1,.07-.1,.2s.03,.2,.1,.2c.53,0,.95-.01,1.27-.03l1.87-.03,1.83,.03c.33,.02,.77,.03,1.3,.03,.07,0,.1-.07,.1-.2s-.03-.2-.1-.2Z"/>
        <path class="cls-4" d="M66.15,32.02c.07,0,.1-.07,.1-.2s-.03-.2-.1-.2c-.58,0-1.01-.06-1.3-.18-.29-.12-.48-.34-.58-.67-.1-.32-.15-.8-.15-1.45v-6.23c0-1,.01-1.87,.03-2.6,.02-.73,.03-1.18,.03-1.33,0-.07-.04-.13-.12-.2-.08-.07-.15-.1-.22-.1l-.13,.03-4.35,2.03c-.16,.04-.31,.04-.46,.01-.16-.04-.29-.09-.39-.18-.1-.08-.16-.13-.18-.15-.09-.09-.18-.17-.27-.23-.09-.06-.21-.11-.36-.14-.16-.04-.32-.02-.46,.06-.14,.07-.23,.2-.28,.39-.05,.23,0,.43,.14,.59,.14,.16,.35,.27,.63,.33,.51,.11,1,.07,1.46-.11,.08-.03,.17-.07,.25-.12h0c.6-.31,1.09-.47,1.47-.47,.4,0,.68,.18,.83,.53,.16,.36,.23,.92,.23,1.7v6.2c0,.93-.13,1.55-.4,1.85-.27,.3-.81,.45-1.63,.45-.07,0-.1,.07-.1,.2s.03,.2,.1,.2c.51,0,.92-.01,1.23-.03l1.87-.03,1.8,.03c.31,.02,.74,.03,1.3,.03Z"/>
        <path class="cls-4" d="M62.81,15.07c.47,0,.83-.13,1.1-.4,.27-.27,.4-.64,.4-1.13,0-.44-.13-.8-.4-1.07-.27-.27-.63-.4-1.1-.4s-.87,.13-1.15,.4c-.28,.27-.42,.62-.42,1.07,0,.49,.14,.87,.42,1.13,.28,.27,.66,.4,1.15,.4Z"/>
        <path class="cls-4" d="M80.36,19.36c0-.13-.03-.2-.1-.2-.49,0-.86,.01-1.1,.03l-1.2,.03-2-.03c-.31-.02-.77-.03-1.37-.03-.04,0-.07,.07-.07,.2s.02,.2,.07,.2c.87,0,1.49,.12,1.88,.35,.39,.23,.58,.62,.58,1.15,0,.33-.09,.77-.27,1.3l-2.57,7.36-4.3-8.86c-.11-.27-.17-.45-.17-.57,0-.27,.16-.45,.48-.57,.32-.11,.79-.17,1.42-.17,.04,0,.07-.07,.07-.2s-.02-.2-.07-.2c-.56,0-1,.01-1.33,.03l-2.17,.03-1.17-.03c-.27-.02-.66-.03-1.17-.03-.04,0-.07,.07-.07,.2s.02,.2,.07,.2c.42,0,.77,.15,1.03,.45,.27,.3,.65,.94,1.17,1.92l5.13,10.39c-.73,1.91-2.64,7.52-3.17,8.57-.53,1.05-1.03,1.81-1.5,2.27-.47,.45-.97,.68-1.5,.68-.31,0-.57-.06-.78-.17-.21-.11-.34-.18-.38-.2-.2-.13-.39-.24-.58-.32-.19-.08-.43-.12-.72-.12-.31,0-.58,.09-.82,.28-.23,.19-.35,.46-.35,.82,0,.44,.16,.78,.48,1.02,.32,.23,.75,.35,1.28,.35,.98,0,1.85-.26,2.62-.78,.77-.52,1.51-1.39,2.23-2.6,.72-1.21,2.76-7.02,3.58-9.17l4-10.66c.38-.98,.77-1.68,1.18-2.1,.41-.42,.92-.63,1.52-.63,.07,0,.1-.07,.1-.2Z"/>
        <path class="cls-4" d="M26.65,1.82c.13-.09,.25-.18,.37-.26,.49-.27,.91-.45,1.28-.55,.63-.17,1.18-.12,1.64,.14,.27,.15,.47,.33,.6,.53,.13,.2,.21,.32,.24,.36,.11,.21,.23,.4,.35,.56,.13,.16,.32,.31,.57,.45,.27,.15,.55,.2,.85,.15,.3-.05,.53-.23,.7-.54,.22-.39,.24-.76,.07-1.12-.17-.36-.48-.67-.95-.93-.85-.48-1.74-.67-2.66-.59-.89,.08-1.92,.45-3.08,1.1-.81,.42-1.42,.81-1.42,.81-1.84,1.31-3.45,3.04-4.83,5.2-.67,.96-1.26,2.09-1.75,3.4-.67,1.66-1.61,4.12-2.81,7.38l-2.76,.53c-.07,0-.22,.03-.45,.08-.23,.05-.58,.12-1.06,.21-.48,.09-.96,.17-1.46,.24C3.36,20.46,0,23.15,0,27.05c0,1.63,.51,2.89,1.54,3.8,1.03,.9,2.48,1.35,4.35,1.35,2.8,0,5.2-1.11,7.22-3.35,2.02-2.23,3.98-5.82,5.89-10.78l.27-.9,3.77-10.3c.46-1.34,.96-2.34,1.49-2.97,.64-.78,1.34-1.47,2.12-2.07ZM12.85,25.13c-.74,1.59-1.47,2.87-2.18,3.82-.74,.96-1.48,1.61-2.2,1.96-.73,.35-1.69,.53-2.89,.53-1.49,0-2.64-.39-3.45-1.17-.81-.78-1.22-1.84-1.22-3.19,0-2.02,.81-3.56,2.44-4.62,1.63-1.06,3.91-1.93,6.85-2.6,.42-.11,2.18-.48,5.26-1.12-1.24,3.22-2.11,5.35-2.6,6.37Z"/>
        <path class="cls-4" d="M93.64,29.04c-.01-.21-.12-.38-.32-.51-.16-.1-.32-.13-.47-.08-.15,.05-.27,.15-.36,.29-.08,.13-.13,.25-.15,.36-.02,.11-.03,.23-.02,.35,0,.03,0,.1-.02,.23-.01,.13-.06,.26-.15,.4-.1,.16-.25,.29-.43,.38-.35,.11-.66,.17-.91,.17-.44,0-.77-.18-.98-.53-.21-.36-.32-.91-.32-1.67v-6.16c0-1.11-.25-1.96-.75-2.55-.5-.59-1.21-.88-2.12-.88-.76,0-1.63,.18-2.62,.53-.99,.36-1.83,.81-2.53,1.37-.7,.56-1.05,1.11-1.05,1.67,0,.29,.1,.53,.3,.73,.2,.2,.5,.3,.9,.3,.78,0,1.23-.49,1.37-1.47,.11-.64,.36-1.22,.73-1.73,.38-.51,.93-.77,1.67-.77,.67,0,1.17,.3,1.52,.9,.34,.6,.52,1.57,.52,2.9v2.2l-3.56,1.3c-1.24,.47-2.15,.94-2.72,1.42-.57,.48-.85,1.07-.85,1.78,0,.67,.23,1.22,.7,1.65,.47,.43,1.12,.65,1.97,.65,.49,0,.95-.08,1.38-.23s.92-.42,1.45-.8l1.67-1.1c.09,.67,.25,1.19,.48,1.58s.49,.58,.78,.58c.11,0,.21-.02,.3-.07l3.1-1.48c.07-.02,.13-.05,.19-.07,.46-.2,.82-.52,1.1-.96,.15-.24,.22-.47,.21-.68Zm-6.21,.39v.2l-1.3,.8c-.56,.33-1.06,.5-1.5,.5-.53,0-.97-.17-1.32-.52-.34-.34-.52-.78-.52-1.32,0-.49,.16-.89,.47-1.22,.31-.32,.77-.59,1.37-.82l2.8-1.13v3.5Z"/>
      </g>
      <text class="cls-5" transform="translate(71.49 39.86)"><tspan x="0" y="0"> </tspan><tspan class="cls-3" x="1.56" y="0">y</tspan><tspan x="4.71" y="0">our st</tspan><tspan class="cls-6" x="21.53" y="0">r</tspan><tspan x="23.84" y="0">ength</tspan></text>
      <text class="cls-5" transform="translate(33.61 39.86)"><tspan class="cls-2" x="0" y="0">Y</tspan><tspan x="3.4" y="0">our h</tspan><tspan class="cls-3" x="18.87" y="0">e</tspan><tspan x="22.33" y="0">a</tspan><tspan class="cls-7" x="25.79" y="0">l</tspan><tspan class="cls-1" x="27.39" y="0">th</tspan></text>
    </g>
  </g>
</svg>