<?xml version="1.0" encoding="UTF-8"?>
<svg id="Layer_2" data-name="Layer 2" xmlns="http://www.w3.org/2000/svg" viewBox="0 0 119.37 84.66">
  <defs>
    <style>
      .cls-1 {
        fill: #c78c57;
      }

      .cls-2 {
        opacity: .12;
      }
    </style>
  </defs>
  <g id="Calque_1" data-name="Calque 1">
    <g class="cls-2">
      <path class="cls-1" d="M111.69,.61c-7.07,0-14.19,3.77-21.36,11.31-7.17,7.35-12.75,16.43-16.75,27.22l-.98,2.51c-2.89,8.01-4.33,15.87-4.33,23.59,0,12.94,4.61,19.41,13.82,19.41,5.21,0,10.19-2.12,14.94-6.35,4.49-4,7.35-7.34,12.08-15.79,.48-.85,.23-1.92-.57-2.48-9.31,16.75-16.68,22.24-25.61,22.24-2.79,0-4.79-.95-6-2.86-1.21-1.91-1.82-5.24-1.82-9.98,0-9.03,2.19-19.31,6.56-30.85,6.14-2.51,10.66-4.56,13.54-6.14,6.79-3.35,12.52-7.31,17.17-11.87,4.65-4.47,6.98-8.94,6.98-13.4s-2.56-6.56-7.68-6.56Zm-.98,18.71c-4.1,3.82-9.54,7.49-16.33,11.03-2.7,1.58-6.52,3.35-11.45,5.31,3.91-9.59,8.56-17.4,13.96-23.46,5.31-6.42,10.42-9.63,15.36-9.63,3.35,0,5.03,1.58,5.03,4.75,0,3.91-2.19,7.91-6.56,12.01Z"/>
      <path class="cls-1" d="M64.57,40.48c8.39-1.86,15.22-3.69,20.49-5.48l-.98,2.51c-6.33,2.05-13.87,4-22.62,5.86h0c.43-1.46,1.62-2.57,3.1-2.9Z"/>
      <g>
        <path class="cls-1" d="M66.32,5.08c-4.84,3.44-9.07,8.01-12.7,13.68-1.77,2.51-3.3,5.49-4.61,8.94-1.77,4.38-4.24,10.84-7.4,19.41l-7.26,1.4c-.19,0-.58,.07-1.19,.21-.61,.14-1.54,.33-2.79,.56-1.26,.23-2.54,.44-3.84,.63C8.84,53.8,0,60.88,0,71.11c0,4.28,1.35,7.61,4.05,9.98,2.7,2.37,6.51,3.56,11.45,3.56,7.35,0,13.68-2.93,18.99-8.8,5.31-5.86,10.47-15.31,15.5-28.34l.7-2.37,9.91-27.09c1.21-3.54,2.51-6.14,3.91-7.82,1.68-2.05,3.54-3.86,5.58-5.44,2.13-1.52,3.88-2.51,5.27-2.98,.52-.18,.88-.66,.88-1.21-4.21,.77-9.91,4.47-9.91,4.47Zm-32.53,61.01c-1.95,4.19-3.86,7.54-5.72,10.05-1.95,2.51-3.89,4.24-5.79,5.17-1.91,.93-4.45,1.4-7.61,1.4-3.91,0-6.93-1.02-9.07-3.07-2.14-2.05-3.21-4.84-3.21-8.38,0-5.31,2.14-9.35,6.42-12.15,4.28-2.79,10.28-5.07,18.01-6.84,1.12-.28,5.72-1.26,13.82-2.93-3.26,8.47-5.54,14.06-6.84,16.75Z"/>
        <path class="cls-1" d="M69.7,3.15c3.21-1.85,6.03-2.89,8.46-3.1,2.43-.21,4.76,.31,7.01,1.56,1.22,.68,2.05,1.5,2.49,2.45,.44,.95,.37,1.93-.2,2.95-.46,.82-1.07,1.29-1.85,1.42-.78,.13-1.52,0-2.24-.4-.66-.37-1.16-.76-1.49-1.19-.33-.42-.64-.91-.93-1.47-.07-.11-.28-.42-.62-.95-.34-.52-.87-.99-1.58-1.39-1.22-.68-2.66-.8-4.32-.36-1.65,.45-3.77,1.54-6.35,3.28"/>
      </g>
      <path class="cls-1" d="M107.2,62.49c.1-.4,.11-.75,.04-1.06-.07-.31-.12-.49-.13-.56-.11-.3-.18-.58-.22-.85-.04-.27-.01-.59,.08-.96,.1-.4,.31-.72,.63-.95,.32-.24,.7-.3,1.16-.18,.57,.14,.95,.46,1.15,.95,.19,.49,.2,1.07,.03,1.76-.32,1.25-.94,2.29-1.85,3.1"/>
    </g>
  </g>
</svg>