<?xml version="1.0" encoding="UTF-8"?>
<svg id="Layer_2" data-name="Layer 2" xmlns="http://www.w3.org/2000/svg" viewBox="0 0 92 65.24">
  <defs>
    <style>
      .cls-1 {
        fill: #fff;
      }

      .cls-2 {
        opacity: .12;
      }
    </style>
  </defs>
  <g id="Calque_1" data-name="Calque 1">
    <g class="cls-2">
      <path class="cls-1" d="M86.08,.47c-5.45,0-10.94,2.91-16.46,8.72-5.52,5.67-9.83,12.66-12.91,20.98l-.75,1.94c-2.22,6.17-3.34,12.23-3.34,18.18,0,9.97,3.55,14.96,10.65,14.96,4.02,0,7.85-1.63,11.51-4.9,3.46-3.08,5.66-5.66,9.31-12.17,.37-.65,.18-1.48-.44-1.91-7.17,12.91-12.85,17.14-19.74,17.14-2.15,0-3.7-.73-4.63-2.21-.93-1.47-1.4-4.03-1.4-7.69,0-6.96,1.68-14.88,5.06-23.78,4.73-1.94,8.21-3.51,10.44-4.73,5.24-2.58,9.65-5.63,13.23-9.15,3.59-3.44,5.38-6.89,5.38-10.33s-1.97-5.06-5.92-5.06Zm-.75,14.42c-3.16,2.94-7.35,5.78-12.59,8.5-2.08,1.22-5.02,2.58-8.82,4.09,3.01-7.39,6.6-13.41,10.76-18.08,4.09-4.95,8.03-7.42,11.84-7.42,2.58,0,3.87,1.22,3.87,3.66,0,3.01-1.69,6.1-5.06,9.25Z"/>
      <path class="cls-1" d="M49.76,31.2c6.46-1.44,11.73-2.84,15.79-4.22l-.75,1.94c-4.88,1.58-10.69,3.09-17.43,4.52h0c.33-1.12,1.25-1.98,2.39-2.23Z"/>
      <g>
        <path class="cls-1" d="M51.11,3.91c-3.73,2.65-6.99,6.17-9.79,10.54-1.36,1.94-2.55,4.23-3.55,6.89-1.36,3.37-3.26,8.36-5.7,14.96l-5.6,1.08c-.14,0-.45,.05-.91,.16-.47,.11-1.18,.25-2.15,.43-.97,.18-1.96,.34-2.96,.48C6.81,41.47,0,46.92,0,54.81c0,3.3,1.04,5.86,3.12,7.69,2.08,1.83,5.02,2.74,8.82,2.74,5.67,0,10.54-2.26,14.63-6.78,4.09-4.52,8.07-11.8,11.94-21.84l.54-1.83,7.64-20.87c.93-2.73,1.94-4.73,3.01-6.03,1.29-1.58,2.73-2.98,4.3-4.2,1.64-1.17,2.99-1.94,4.06-2.3,.4-.14,.67-.51,.67-.93-3.24,.6-7.64,3.44-7.64,3.44ZM26.04,50.93c-1.51,3.23-2.98,5.81-4.41,7.75-1.51,1.94-3,3.26-4.47,3.98-1.47,.72-3.43,1.08-5.86,1.08-3.01,0-5.34-.79-6.99-2.37-1.65-1.58-2.47-3.73-2.47-6.46,0-4.09,1.65-7.21,4.95-9.36,3.3-2.15,7.93-3.91,13.88-5.27,.86-.22,4.41-.97,10.65-2.26-2.51,6.53-4.27,10.83-5.27,12.91Z"/>
        <path class="cls-1" d="M53.72,2.43C56.19,1,58.36,.2,60.24,.04c1.87-.16,3.67,.24,5.4,1.2,.94,.53,1.58,1.16,1.92,1.89,.34,.73,.29,1.49-.15,2.28-.35,.63-.83,1-1.43,1.1-.6,.1-1.17,0-1.72-.31-.51-.29-.89-.59-1.15-.91-.26-.32-.5-.7-.72-1.14-.06-.08-.22-.33-.48-.73-.26-.4-.67-.76-1.22-1.07-.94-.53-2.05-.62-3.33-.27-1.28,.34-2.91,1.19-4.89,2.52"/>
      </g>
      <path class="cls-1" d="M82.62,48.16c.08-.31,.09-.58,.03-.82-.06-.24-.09-.38-.1-.43-.08-.23-.14-.45-.17-.66-.03-.21,0-.45,.06-.74,.08-.31,.24-.55,.48-.74,.24-.18,.54-.23,.89-.14,.44,.11,.73,.36,.88,.73,.15,.38,.16,.83,.02,1.35-.24,.97-.72,1.76-1.43,2.39"/>
    </g>
  </g>
</svg>